<?xml version="1.0" encoding="UTF-8"?>
<svg xmlns="http://www.w3.org/2000/svg" xmlns:xlink="http://www.w3.org/1999/xlink" width="12px" height="12px" viewBox="0 0 12 12" version="1.1">
<g id="surface1">
<path style=" stroke:none;fill-rule:nonzero;fill:rgb(0%,60%,93.333333%);fill-opacity:1;" d="M 8.574219 2.386719 L 1.289062 2.386719 C 0.574219 2.386719 0 2.925781 0 3.585938 L 0 10.417969 C 0 11.085938 0.574219 11.625 1.289062 11.625 L 8.574219 11.625 C 9.28125 11.625 9.855469 11.085938 9.855469 10.417969 L 9.855469 3.585938 C 9.855469 2.925781 9.28125 2.386719 8.574219 2.386719 Z M 9 10.417969 C 9 10.640625 8.8125 10.824219 8.574219 10.824219 L 1.289062 10.824219 C 1.050781 10.824219 0.855469 10.640625 0.855469 10.417969 L 0.855469 3.585938 C 0.855469 3.363281 1.050781 3.1875 1.289062 3.1875 L 8.574219 3.1875 C 8.8125 3.1875 9 3.363281 9 3.585938 Z M 9 10.417969 "/>
<path style=" stroke:none;fill-rule:nonzero;fill:rgb(0%,60%,93.333333%);fill-opacity:1;" d="M 10.710938 0.375 L 3 0.375 C 2.292969 0.375 1.710938 0.914062 1.710938 1.582031 C 1.710938 1.804688 1.910156 1.980469 2.144531 1.980469 C 2.378906 1.980469 2.574219 1.804688 2.574219 1.582031 C 2.574219 1.359375 2.765625 1.175781 3 1.175781 L 10.710938 1.175781 C 10.949219 1.175781 11.144531 1.359375 11.144531 1.582031 L 11.144531 8.8125 C 11.144531 9.035156 10.949219 9.210938 10.710938 9.210938 C 10.476562 9.210938 10.289062 9.398438 10.289062 9.613281 C 10.289062 9.839844 10.476562 10.019531 10.710938 10.019531 C 11.425781 10.019531 12 9.480469 12 8.8125 L 12 1.582031 C 12 0.914062 11.425781 0.375 10.710938 0.375 Z M 10.710938 0.375 "/>
</g>
</svg>
