<svg height="32pt" viewBox="0 0 32 32" width="32pt" xmlns="http://www.w3.org/2000/svg"><path d="m4.4375 28.75-2.5625-28.75h28.1875l-2.5625 28.75-11.5625 3.25" fill="#e34f26"/><path d="m16 29.5 9.3125-2.5625 2.1875-24.625h-11.5" fill="#ef652a"/><path d="m16 13h-4.6875l-.3125-3.625h5v-3.5h-8.875l.0625.9375.875 9.75h7.9375zm0 9.1875h-.0625l-3.9375-1.0625-.25-2.8125h-3.5l.4375 5.5625 7.25 2h.0625zm0 0" fill="#ebebeb"/><path d="m15.9375 13v3.5625h4.375l-.4375 4.5625-3.9375 1.0625v3.6875l7.25-2 .0625-.625.8125-9.3125.125-.9375zm0-7.125v3.5h8.5625l.0625-.75.1875-1.8125.0625-.9375zm0 0" fill="#fff"/></svg>