<svg height="45pt" viewBox="0 0 32 45" width="32pt" xmlns="http://www.w3.org/2000/svg"><path d="m.109375 8.785156.003906.402344c.003907.222656.644531 7.539062 1.425781 16.257812l1.421876 15.859376 6.390624 1.78125c3.515626.984374 6.464844 1.789062 6.554688 1.796874.089844.007813 3.074219-.792968 6.640625-1.777343 5.710937-1.578125 6.480469-1.8125 6.523437-2.007813.054688-.273437 2.855469-31.734375 2.851563-32.070312l-.003906-.242188zm0 0" fill="#fff"/><path d="m9.402344 43.195312-6.445313-1.796874-.085937-.476563c-.074219-.421875-2.871094-31.558594-2.871094-31.96875 0-.152344 1.632812-.167969 16.011719-.167969 15.179687 0 16.015625.011719 16.015625.1875-.007813.769532-2.902344 32.316406-2.972656 32.378906-.089844.082032-12.570313 3.546876-12.988282 3.609376-.117187.015624-3.117187-.777344-6.664062-1.765626zm10.675781-6.351562c2.167969-.59375 3.972656-1.113281 4.011719-1.152344.039062-.035156.292968-2.597656.5625-5.691406.273437-3.09375.523437-5.828125.554687-6.082031l.0625-.453125h-9.363281v3.964844h5.054688l-.050782.238281c-.027344.132812-.132812 1.273437-.238281 2.535156-.109375 1.332031-.238281 2.339844-.3125 2.414063-.066406.066406-1.097656.382812-2.289063.699218l-2.164062.574219v2.019531c0 1.378906.035156 2.019532.117188 2.019532.0625 0 1.886718-.488282 4.054687-1.085938zm5.128906-15.871094c-.070312-.523437-.703125-7.566406-.703125-7.832031 0-.160156-.371094-.175781-4.246094-.175781h-4.246093v4.144531l1.910156.074219c1.046875.039062 2.152344.101562 2.453125.136718l.546875.0625.132813 1.621094c.070312.890625.160156 1.800782.191406 2.023438l.0625.402344h3.960937zm0 0" fill="#eaebec"/><path d="m9.351562 43.085938-6.390624-1.78125-1.421876-15.859376c-.78125-8.71875-1.421874-16.035156-1.425781-16.257812l-.003906-.402344h31.808594l.003906.242188c.003906.335937-2.796875 31.796875-2.851563 32.070312-.042968.195313-.8125.429688-6.523437 2.007813-3.566406.984375-6.550781 1.785156-6.640625 1.777343-.089844-.007812-3.039062-.8125-6.554688-1.796874zm10.734376-6.164063c2.207031-.613281 4.046874-1.164063 4.085937-1.226563s.300781-2.753906.585937-5.984374c.285157-3.230469.539063-5.957032.570313-6.058594.046875-.175782-.328125-.1875-6.8125-.1875h-6.867187l.292968-3.082032c.160156-1.691406.296875-3.082031.300782-3.089843.003906-.003907 1.011718-.035157 2.238281-.070313 2.011719-.054687 6.160156.105469 6.296875.242188.054687.050781.394531 3.386718.394531 3.84375 0 .222656.03125.226562 2.082031.226562h2.082032l-.046876-.453125c-.027343-.253906-.203124-2.191406-.394531-4.3125l-.339843-3.859375-8.03125-.027344c-6.390626-.019531-8.035157 0-8.035157.109376 0 .070312-.046875.542968-.101562 1.042968-.136719 1.210938-1.1875 12.921875-1.1875 13.246094v.253906h13.667969l-.058594.402344c-.035156.222656-.140625 1.34375-.238282 2.492188-.09375 1.148437-.203124 2.117187-.242187 2.152343-.101563.097657-4.121094 1.167969-4.371094 1.164063-.117187 0-1.15625-.257813-2.308593-.570313l-2.09375-.574219-.078126-.898437c-.042968-.496094-.105468-1.199219-.144531-1.570313l-.066406-.667968h-4.066406l.007812.402344c.007813.75.496094 5.8125.566407 5.882812.082031.082031 7.890624 2.269531 8.132812 2.277344.089844.003906 1.96875-.492188 4.179688-1.105469zm0 0" fill="#f0be25"/><path d="m9.351562 43.085938-6.390624-1.78125-1.421876-15.859376c-.78125-8.71875-1.421874-16.035156-1.425781-16.257812l-.003906-.402344h31.808594l.003906.242188c.003906.335937-2.796875 31.796875-2.851563 32.070312-.042968.195313-.8125.429688-6.523437 2.007813-3.566406.984375-6.550781 1.785156-6.640625 1.777343-.089844-.007812-3.039062-.8125-6.554688-1.796874zm11.921876-2.386719c2.8125-.773438 5.164062-1.457031 5.226562-1.523438.101562-.105469 2.53125-26.636719 2.519531-27.523437v-.296875h-13.007812v1.5h-3.761719c-2.933594 0-3.761719.03125-3.761719.136719 0 .074218-.046875.542968-.101562 1.042968-.136719 1.210938-1.1875 12.921875-1.1875 13.246094v.253906h8.8125v3.109375c0 2.414063-.027344 3.105469-.132813 3.101563-.074218 0-1.078125-.257813-2.230468-.570313l-2.09375-.574219-.078126-.898437c-.042968-.496094-.105468-1.199219-.144531-1.570313l-.066406-.667968h-4.066406l.007812.402344c.011719 1.148437.507813 5.839843.625 5.910156.074219.042968 1.941407.582031 4.15625 1.191406l4.023438 1.109375v2.015625c0 1.105469.035156 2.011719.074219 2.011719.042968 0 2.375-.632813 5.1875-1.40625zm-9.34375-20.285157c.15625-1.679687.304687-3.070312.328124-3.09375.027344-.023437.882813-.066406 1.902344-.09375l1.851563-.050781v6.289063h-4.363281zm0 0" fill="#e4a126"/><path d="m10.210938 4.980469v-1.015625h2.902343v-3.964844h2.039063v6h-4.941406zm5.910156.214843v-.800781h1.34375c.738281 0 1.34375-.027343 1.34375-.0625 0-.03125-.605469-.714843-1.34375-1.511719l-1.34375-1.453124v-1.367188h5.589844v1.601562l-1.3125.027344-1.3125.03125 1.367187 1.464844 1.363281 1.46875v1.40625h-5.695312zm0 0" fill="#0e0e0f"/></svg>