<svg height="32pt" viewBox="0 0 32 32" width="32pt" xmlns="http://www.w3.org/2000/svg" xmlns:xlink="http://www.w3.org/1999/xlink"><clipPath id="a"><path d="m13.65625 12.40625h4.6875v7.15625h-4.6875zm0 0"/></clipPath><path d="m0 5.625c0-3.105469 2.519531-5.625 5.625-5.625h20.75c3.105469 0 5.625 2.519531 5.625 5.625v20.75c0 3.105469-2.519531 5.625-5.625 5.625h-20.75c-3.105469 0-5.625-2.519531-5.625-5.625zm0 0" fill="#09f"/><path d="m7 4.824219h.6875v2.074219h2.613281v-2.074219h.6875v5.019531h-.6875v-2.347656h-2.613281v2.347656h-.6875zm8.695312 0v.597656h-1.691406v4.421875h-.6875v-4.421875h-1.691406v-.597656zm.609376 0h.976562l1.441406 4.242187 1.433594-4.242187h.960938v5.019531h-.644532v-2.964844c0-.101562 0-.269531.007813-.507812.003906-.238282.003906-.492188.003906-.761719l-1.429687 4.234375h-.675782l-1.441406-4.234375v.152344c0 .125.003906.3125.007812.566406.007813.25.007813.433594.007813.550781v2.964844h-.648437zm5.847656 0h.683594v4.421875h2.539062v.597656h-3.222656zm0 0" fill="#fff"/><path d="m14.898438 26.316406c0 .421875-.0625.753906-.1875.988282-.234376.425781-.675782.640624-1.328126.640624-.375 0-.695312-.101562-.964843-.304687-.265625-.203125-.398438-.566406-.398438-1.089844v-.359375h.640625v.359375c0 .273438.058594.480469.179688.621094.121094.132813.3125.203125.570312.203125.363282 0 .601563-.125.710938-.371094.070312-.152344.101562-.441406.101562-.867187v-3.34375h.675782zm1.480468-.125c.015625.285156.082032.515625.199219.695313.226563.332031.625.5 1.195313.5.253906 0 .484374-.039063.695312-.109375.40625-.144532.609375-.394532.609375-.761719 0-.273437-.085937-.46875-.257813-.582031-.171874-.113282-.445312-.214844-.8125-.296875l-.679687-.15625c-.445313-.097657-.757813-.210938-.945313-.332031-.316406-.207032-.476562-.523438-.476562-.9375 0-.453126.15625-.824219.46875-1.113282.3125-.289062.753906-.433594 1.324219-.433594.527343 0 .972656.128907 1.339843.382813.371094.253906.554688.660156.554688 1.21875h-.640625c-.03125-.269531-.105469-.476563-.21875-.621094-.207031-.261719-.558594-.390625-1.054687-.390625-.402344 0-.6875.082032-.863282.253906-.175781.167969-.265625.363282-.265625.585938 0 .246094.105469.425781.308594.539062.132813.074219.4375.164063.914063.273438l.703124.160156c.339844.078125.601563.183594.785157.320313.320312.234375.480469.574219.480469 1.019531 0 .558594-.203126.953125-.609376 1.195312-.402343.238282-.875.359376-1.410156.359376-.621094 0-1.113281-.160157-1.464844-.480469-.351562-.316407-.527343-.746094-.519531-1.289063zm0 0" fill="#fff"/><g clip-path="url(#a)"><path d="m18.039062 16.375c-.015624-.058594-.050781-.09375-.089843-.09375h-1.070313v-3.726562c0-.082032-.042968-.148438-.097656-.148438h-1.558594c-.054687 0-.097656.066406-.097656.148438v3.726562h-1.074219c-.039062 0-.078125.035156-.089843.09375-.015626.054688-.007813.117188.019531.160156l1.949219 2.984375c.015624.027344.042968.042969.066406.042969.027344 0 .050781-.015625.070312-.042969l1.953125-2.984375c.027344-.042968.035157-.105468.019531-.160156zm0 0" fill="#fff"/></g></svg>