<svg fill="none" height="1024" viewBox="0 0 1024 1024" width="1024" xmlns="http://www.w3.org/2000/svg" xmlns:xlink="http://www.w3.org/1999/xlink"><clipPath id="a"><path d="m437 397h150v229h-150z"/></clipPath><path d="m0 180c0-99.4113 80.5887-180 180-180h664c99.411 0 180 80.5887 180 180v664c0 99.411-80.589 180-180 180h-664c-99.4113 0-180-80.589-180-180z" fill="#09f"/><path d="m224.062 154.328h21.985v66.391h83.562v-66.391h21.985v160.672h-21.985v-75.141h-83.562v75.141h-21.985zm278.25 0v19.141h-54.14v141.531h-22.094v-141.531h-54.14v-19.141zm19.469 0h31.172l46.156 135.844 45.829-135.844h30.843v160.672h-20.672v-94.828c0-3.281.073-8.714.219-16.297s.219-15.714.219-24.391l-45.828 135.516h-21.547l-46.156-135.516v4.922c0 3.938.073 9.953.218 18.047.219 8.021.328 13.927.328 17.719v94.828h-20.781zm187.141 0h21.766v141.531h81.374v19.141h-103.14z" fill="#fff"/><path d="m476.719 842.094c0 13.562-2.005 24.099-6.016 31.609-7.437 13.708-21.583 20.563-42.437 20.563-12.032 0-22.313-3.245-30.844-9.735-8.531-6.562-12.797-18.192-12.797-34.89v-11.485h20.453v11.485c0 8.75 1.932 15.349 5.797 19.797 3.937 4.374 10.026 6.562 18.266 6.562 11.593 0 19.177-3.974 22.75-11.922 2.187-4.885 3.281-14.109 3.281-27.672v-107.078h21.547zm47.359-3.938c.511 9.115 2.662 16.516 6.453 22.203 7.219 10.646 19.943 15.969 38.172 15.969 8.167 0 15.604-1.167 22.313-3.5 12.979-4.521 19.468-12.614 19.468-24.281 0-8.75-2.734-14.985-8.203-18.703-5.541-3.646-14.219-6.818-26.031-9.516l-21.766-4.922c-14.218-3.208-24.281-6.745-30.187-10.609-10.208-6.708-15.313-16.735-15.313-30.078 0-14.438 4.995-26.287 14.985-35.547 9.989-9.261 24.135-13.891 42.437-13.891 16.844 0 31.136 4.084 42.875 12.25 11.813 8.094 17.719 21.073 17.719 38.938h-20.453c-1.094-8.604-3.427-15.203-7-19.797-6.636-8.386-17.901-12.578-33.797-12.578-12.833 0-22.057 2.698-27.672 8.094-5.614 5.395-8.422 11.666-8.422 18.812 0 7.875 3.282 13.635 9.844 17.281 4.302 2.334 14.036 5.25 29.203 8.75l22.531 5.141c10.865 2.479 19.25 5.87 25.157 10.172 10.208 7.51 15.312 18.411 15.312 32.703 0 17.792-6.489 30.515-19.469 38.172-12.906 7.656-27.927 11.484-45.062 11.484-19.979 0-35.62-5.104-46.922-15.312-11.302-10.136-16.844-23.881-16.625-41.235z" fill="#fff"/><g clip-path="url(#a)"><path d="m577.299 523.947c-.488-1.783-1.625-2.947-2.887-2.947h-34.232v-119.231c0-2.632-1.4-4.769-3.124-4.769h-49.984c-1.724 0-3.124 2.137-3.124 4.769v119.232h-34.363c-1.262 0-2.399 1.163-2.887 2.938-.481 1.783-.218 3.834.675 5.198l62.323 95.461c.587.897 1.381 1.402 2.212 1.402s1.624-.505 2.212-1.392l62.504-95.461c.893-1.365 1.162-3.416.675-5.2z" fill="#fff"/></g></svg>